# Blender v2.78 (sub 0) OBJ File: ''
# www.blender.org
mtllib Shaft.mtl
o Cylinder
v -0.049086 3.587623 0.120493
v -0.079101 -0.010989 0.121360
v -0.049626 -0.010991 0.124236
v -0.106908 3.587619 0.109048
v -0.107448 -0.010995 0.112790
v -0.133039 3.587606 0.095111
v -0.133579 -0.011007 0.098854
v -0.155949 3.587587 0.076345
v -0.156489 -0.011027 0.080088
v -0.174757 3.587562 0.053470
v -0.175298 -0.011052 0.057213
v -0.188742 3.587532 0.027365
v -0.189283 -0.011082 0.031107
v -0.197365 3.587498 -0.000967
v -0.197906 -0.011115 0.002776
v -0.200295 3.587461 -0.030436
v -0.200836 -0.011152 -0.026694
v -0.197420 3.587424 -0.059911
v -0.197961 -0.011189 -0.056169
v -0.188850 3.587387 -0.088259
v -0.189390 -0.011226 -0.084517
v -0.174914 3.587352 -0.114390
v -0.175454 -0.011261 -0.110648
v -0.156148 3.587320 -0.137300
v -0.156688 -0.011293 -0.133558
v -0.133273 3.587293 -0.156109
v -0.133814 -0.011320 -0.152367
v -0.107168 3.587271 -0.170094
v -0.107709 -0.011343 -0.166352
v -0.078837 3.587255 -0.178717
v -0.079377 -0.011358 -0.174975
v -0.049367 3.587246 -0.181648
v -0.049908 -0.011367 -0.177905
v -0.020433 -0.011369 -0.175030
v -0.019893 3.587244 -0.178772
v 0.007914 -0.011364 -0.166459
v 0.008455 3.587250 -0.170202
v 0.034045 -0.011351 -0.152523
v 0.034586 3.587262 -0.156266
v 0.056955 -0.011332 -0.133757
v 0.057496 3.587282 -0.137500
v 0.075764 -0.011307 -0.110882
v 0.076304 3.587307 -0.114624
v 0.089748 -0.011276 -0.084777
v 0.090289 3.587337 -0.088519
v 0.098371 -0.011243 -0.056445
v 0.098912 3.587370 -0.060188
v 0.101301 -0.011207 -0.026976
v 0.101842 3.587407 -0.030718
v 0.098426 -0.011169 0.002500
v 0.098967 3.587444 -0.001243
v 0.089856 -0.011132 0.030847
v 0.090397 3.587481 0.027105
v 0.075920 -0.011097 0.056978
v 0.076461 3.587516 0.053236
v 0.057154 -0.011065 0.079889
v 0.057695 3.587548 0.076146
v 0.034279 -0.011038 0.098697
v 0.034820 3.587575 0.094955
v 0.008174 -0.011016 0.112682
v 0.008715 3.587598 0.108940
v -0.020157 -0.011000 0.121305
v -0.019617 3.587614 0.117563
v -0.078560 3.587624 0.117618
vn -0.0971 0.0010 0.9953
vn -0.2894 0.0010 0.9572
vn -0.4706 0.0010 0.8824
vn -0.4706 0.0010 0.8823
vn -0.6337 0.0009 0.7736
vn -0.7724 0.0008 0.6351
vn -0.8815 0.0006 0.4722
vn -0.9567 0.0004 0.2912
vn -0.9951 0.0003 0.0989
vn -0.9953 0.0000 -0.0971
vn -0.9572 -0.0002 -0.2894
vn -0.8824 -0.0004 -0.4706
vn -0.7736 -0.0005 -0.6337
vn -0.6351 -0.0007 -0.7724
vn -0.4722 -0.0008 -0.8815
vn -0.2912 -0.0010 -0.9567
vn -0.0989 -0.0010 -0.9951
vn -0.0990 -0.0010 -0.9951
vn 0.0971 -0.0010 -0.9953
vn 0.2894 -0.0010 -0.9572
vn 0.4706 -0.0010 -0.8824
vn 0.6337 -0.0009 -0.7736
vn 0.7724 -0.0008 -0.6351
vn 0.8815 -0.0006 -0.4722
vn 0.9567 -0.0004 -0.2912
vn 0.9951 -0.0003 -0.0989
vn 0.9953 -0.0000 0.0971
vn 0.9572 0.0002 0.2894
vn 0.8824 0.0004 0.4706
vn 0.7736 0.0005 0.6337
vn 0.6351 0.0007 0.7724
vn 0.4722 0.0008 0.8815
vn 0.0002 1.0000 -0.0013
vn 0.0002 1.0000 -0.0012
vn 0.0001 1.0000 -0.0011
vn 0.0003 1.0000 -0.0010
vn 0.0005 1.0000 -0.0013
vn 0.0003 1.0000 -0.0015
vn 0.0001 1.0000 -0.0010
vn 0.2912 0.0010 0.9567
vn 0.0989 0.0010 0.9951
vn 0.0990 0.0010 0.9951
vn -0.0002 -1.0000 0.0013
vn -0.0002 -1.0000 0.0012
vn -0.0004 -1.0000 0.0013
vn -0.0001 -1.0000 0.0012
vn 0.0000 -1.0000 0.0013
vn -0.0001 -1.0000 0.0013
vn -0.0001 -1.0000 0.0015
vn -0.0003 -1.0000 0.0013
usemtl None
s 1
f 1//1 2//1 3//1
f 1//1 64//1 2//1
s 2
f 2//2 4//2 5//2
f 2//2 64//2 4//2
s 3
f 5//3 6//4 7//3
f 5//3 4//4 6//4
s 4
f 7//5 8//5 9//5
f 7//5 6//5 8//5
s 5
f 9//6 10//6 11//6
f 9//6 8//6 10//6
s 6
f 11//7 12//7 13//7
f 11//7 10//7 12//7
s 7
f 13//8 14//8 15//8
f 13//8 12//8 14//8
s 8
f 15//9 16//9 17//9
f 15//9 14//9 16//9
s 9
f 17//10 18//10 19//10
f 17//10 16//10 18//10
s 10
f 19//11 20//11 21//11
f 19//11 18//11 20//11
s 11
f 21//12 22//12 23//12
f 21//12 20//12 22//12
s 12
f 23//13 24//13 25//13
f 23//13 22//13 24//13
s 13
f 25//14 26//14 27//14
f 25//14 24//14 26//14
s 14
f 27//15 28//15 29//15
f 27//15 26//15 28//15
s 15
f 29//16 30//16 31//16
f 29//16 28//16 30//16
s 16
f 31//17 32//18 33//17
f 31//17 30//18 32//18
s 17
f 32//19 34//19 33//19
f 32//19 35//19 34//19
s 18
f 35//20 36//20 34//20
f 35//20 37//20 36//20
s 19
f 37//21 38//21 36//21
f 37//21 39//21 38//21
s 20
f 39//22 40//22 38//22
f 39//22 41//22 40//22
s 21
f 41//23 42//23 40//23
f 41//23 43//23 42//23
s 22
f 43//24 44//24 42//24
f 43//24 45//24 44//24
s 23
f 45//25 46//25 44//25
f 45//25 47//25 46//25
s 24
f 47//26 48//26 46//26
f 47//26 49//26 48//26
s 25
f 49//27 50//27 48//27
f 49//27 51//27 50//27
s 26
f 51//28 52//28 50//28
f 51//28 53//28 52//28
s 27
f 53//29 54//29 52//29
f 53//29 55//29 54//29
s 28
f 55//30 56//30 54//30
f 55//30 57//30 56//30
s 29
f 57//31 58//31 56//31
f 57//31 59//31 58//31
s 30
f 59//32 60//32 58//32
f 59//32 61//32 60//32
s 31
f 37//33 20//34 53//34
f 4//34 64//35 1//34
f 1//34 63//33 4//34
f 61//33 59//36 57//34
f 57//34 55//33 53//34
f 53//34 51//34 49//33
f 49//33 47//37 45//34
f 45//34 43//34 41//33
f 41//33 39//38 37//33
f 37//33 35//33 32//33
f 32//33 30//34 37//33
f 28//34 26//33 24//34
f 24//34 22//33 20//34
f 20//34 18//34 16//33
f 16//33 14//33 12//33
f 12//33 10//33 4//34
f 8//34 6//39 4//34
f 4//34 63//33 61//33
f 61//33 57//34 4//34
f 53//34 49//33 37//33
f 45//34 41//33 37//33
f 37//33 30//34 28//34
f 28//34 24//34 37//33
f 20//34 16//33 4//34
f 10//33 8//34 4//34
f 4//34 57//34 53//34
f 49//33 45//34 37//33
f 37//33 24//34 20//34
f 16//33 12//33 4//34
f 4//34 53//34 20//34
s 32
f 61//40 62//40 60//40
f 61//40 63//40 62//40
s 33
f 63//41 3//42 62//42
f 63//41 1//41 3//42
s 34
f 31//43 46//44 15//44
f 62//44 3//44 2//43
f 2//43 5//44 62//44
f 7//43 9//45 11//44
f 11//44 13//46 15//44
f 15//44 17//47 19//43
f 19//43 21//48 23//43
f 23//43 25//43 31//43
f 27//44 29//49 31//43
f 31//43 33//44 34//44
f 34//44 36//43 31//43
f 38//44 40//43 42//44
f 42//44 44//44 46//44
f 46//44 48//50 50//43
f 50//43 52//48 54//43
f 54//43 56//43 62//44
f 58//44 60//44 62//44
f 62//44 5//44 7//43
f 7//43 11//44 62//44
f 15//44 19//43 31//43
f 25//43 27//44 31//43
f 31//43 36//43 38//44
f 38//44 42//44 31//43
f 46//44 50//43 62//44
f 56//43 58//44 62//44
f 62//44 11//44 15//44
f 19//43 23//43 31//43
f 31//43 42//44 46//44
f 50//43 54//43 62//44
f 62//44 15//44 46//44
